<svg width="1000" height="1000" viewBox="0 0 1000 1000" fill="none" xmlns="http://www.w3.org/2000/svg">
<path d="M889.803 665.076C876.282 634.321 850.315 608.657 819.123 596.026C786.633 582.868 749.328 587.658 715.107 583.251C685.385 579.423 663.941 566.155 646.194 542.565C629.19 519.961 613.944 494.929 586.141 484.473C564.173 476.212 539.197 478.501 517.363 487.11C477.131 502.973 446.743 536.703 421.151 570.305C397.786 600.985 378.727 634.579 335.508 635.675C292.261 636.771 251.09 612.102 207.546 618.639C149.995 627.278 102.068 675.187 92.0246 732.222C82.612 785.676 106.231 837.52 146.808 867.982H844.261C895.391 813.741 922.221 738.812 889.803 665.076Z" fill="#383837"/>
<path d="M259.317 867.982H261.236C274.56 853.337 284.998 835.566 291.633 815.84C302.372 783.912 301.919 750.406 290.358 721.491C284.515 706.878 276.078 693.26 267.919 680.089C259.644 666.732 251.088 652.921 245.28 638.121C242.879 632.001 241.105 625.429 240.038 618.726C239.557 618.663 239.076 618.612 238.595 618.553C239.667 625.496 241.491 632.302 243.975 638.633C249.828 653.552 258.418 667.418 266.726 680.829C274.854 693.947 283.258 707.513 289.055 722.011C300.493 750.617 300.936 783.78 290.303 815.393C283.586 835.364 272.93 853.301 259.317 867.982Z" fill="#4D4D4D"/>
<path d="M840.891 807.156C855.262 810.218 869.11 812.964 882.502 814.692C882.733 814.25 882.955 813.805 883.182 813.361C869.678 811.644 855.701 808.877 841.185 805.784C819.082 801.075 795.158 795.978 771.43 795.978C756.739 795.978 742.124 797.932 728.064 803.142C722.737 805.116 717.604 807.62 712.717 810.603C700.023 805.192 687.261 799.285 674.617 792.801C683.791 785.89 693.061 779.123 702.431 772.58C771.983 724.013 836.172 696.479 898.186 688.664C898.061 688.21 897.931 687.756 897.803 687.302C835.624 695.18 771.294 722.784 701.628 771.429C692.06 778.112 682.595 785.027 673.233 792.088C659.015 784.742 644.968 776.67 631.372 767.761C606.713 751.604 577.38 728.54 551.764 697.896C651.033 686.76 752.1 672.728 834.633 617.567C837.767 615.472 841.239 613.002 844.836 610.2C844.438 609.918 844.036 609.639 843.634 609.361C840.188 612.031 836.864 614.389 833.854 616.4C751.341 671.547 650.088 685.471 550.69 696.606C532.589 674.711 516.415 648.993 505.176 619.22C487.668 572.843 488.592 527.331 507.712 494.354C508.542 492.922 509.419 491.512 510.323 490.116C509.524 490.483 508.733 490.863 507.942 491.243C507.45 492.04 506.967 492.842 506.498 493.65C487.166 526.994 486.205 572.942 503.863 619.716C515.042 649.327 531.071 674.944 549.026 696.791C543.272 697.434 537.517 698.07 531.779 698.703C511.081 700.987 489.677 703.35 468.894 706.025C461.307 707.002 453.593 708.141 445.917 709.568C429.461 674.838 411.385 640.956 388.019 611.899C387.685 612.232 387.345 612.555 387.007 612.884C410.174 641.72 428.137 675.349 444.492 709.837C411.011 716.222 378.5 728.225 361.141 756.165C344.929 782.257 344.944 818.323 361.185 863.364C361.746 864.921 362.325 866.457 362.912 867.982H364.414C363.771 866.314 363.132 864.628 362.504 862.887C346.416 818.271 346.359 782.614 362.333 756.904C379.486 729.298 411.818 717.454 445.113 711.146C450.922 723.434 456.534 735.824 462.111 748.137L462.718 749.477C482.088 792.236 502.121 833.501 528.353 867.983H530.103C503.634 833.437 483.487 791.925 463.996 748.899L463.39 747.56C457.86 735.35 452.295 723.066 446.538 710.881C454.067 709.489 461.632 708.374 469.075 707.417C489.845 704.743 511.241 702.381 531.933 700.098C537.976 699.43 544.033 698.762 550.095 698.084C575.955 729.208 605.661 752.592 630.602 768.934C644.051 777.746 657.939 785.743 671.993 793.026C648.135 811.072 624.928 830.057 602.27 848.595C594.424 855.014 586.488 861.5 578.489 867.983H580.713C588.258 861.862 595.75 855.74 603.157 849.68C625.976 831.014 649.347 811.892 673.375 793.74C685.947 800.208 698.638 806.106 711.265 811.507C693.99 822.494 679.912 839.505 671.4 860.164C670.334 862.75 669.403 865.362 668.541 867.983H670.018C670.831 865.542 671.703 863.109 672.697 860.698C681.233 839.983 695.429 822.988 712.836 812.177C748.132 827.172 782.823 838.304 812.63 847.123L813.752 847.455C826.314 851.169 839.162 854.975 850.526 861.089C850.843 860.727 851.163 860.366 851.478 860.002C839.93 853.736 826.892 849.877 814.15 846.11L813.028 845.778C783.523 837.048 749.232 826.053 714.313 811.28C718.863 808.572 723.624 806.284 728.553 804.457C764.939 790.973 805.291 799.572 840.891 807.156Z" fill="#4D4D4D"/>
<path d="M150.324 716.308C156.519 741.665 153.755 769.048 142.741 791.439C135.527 806.105 125.109 819.382 112.277 830.784C112.533 831.181 112.793 831.575 113.053 831.97C126.093 820.417 136.677 806.947 144 792.058C155.157 769.377 157.959 741.646 151.686 715.976C146.786 695.919 136.935 678.93 123.324 666.639C123.021 666.995 122.719 667.354 122.42 667.714C135.804 679.816 145.496 696.548 150.324 716.308Z" fill="#4D4D4D"/>
<path d="M467.753 395.1C479.971 407.585 485.447 428.618 478.71 448.011C472.187 466.787 457.888 482.341 440.708 492.34C426.886 500.384 408.855 504.822 395.261 496.398C385.102 490.102 379.834 477.751 379.541 465.803C379.249 453.856 383.266 442.212 388.233 431.342C395.233 416.018 404.654 401.159 418.688 391.841C438.034 378.996 456.009 383.099 467.753 395.1Z" fill="#F7F0E3"/>
<path d="M305.795 176.197H204.623V131H305.795V176.197ZM206.727 174.093H303.691V133.104H206.727V174.093Z" fill="#E9DDCA"/>
<path d="M239.977 219.419H138.806V174.222H239.977V219.419ZM140.909 217.315H237.874V176.326H140.909V217.315Z" fill="#E9DDCA"/>
<path d="M881.442 267.579C874.891 245.796 863.368 225.796 846.874 207.512C830.346 189.228 807.805 174.134 779.251 162.197C750.696 150.258 714.415 144.29 670.408 144.29C635.303 144.29 599.526 149.024 563.077 158.492C526.594 167.994 494.95 181.51 468.108 199.074L503.046 294.994L484.321 310.163L511.477 318.143C538.285 304.113 562.707 293.925 584.745 287.578C606.748 281.266 630.129 278.11 654.921 278.11C679.68 278.11 698.425 284.079 711.156 296.017C723.888 307.989 730.237 322.362 730.237 339.24C730.237 359.617 723.686 377.695 710.652 393.509C697.551 409.324 683.106 425.309 667.283 441.467C656.298 452.684 645.615 464.279 635.302 476.217C624.989 488.189 615.852 500.985 607.957 514.707C600.029 528.394 593.68 543.145 588.876 558.959C584.039 574.773 581.654 592.508 581.654 612.165C581.654 618.511 581.788 626.058 582.158 634.84C582.22 636.46 582.305 638.04 582.401 639.599H556.728L584.745 658.544H720.966C720.26 654.325 719.925 649.42 719.925 643.793C719.925 638.168 719.925 633.948 719.925 631.135C719.925 619.197 722.343 607.431 727.148 595.836C731.952 584.241 737.998 573.196 745.221 562.63C752.444 552.099 760.506 542.081 769.476 532.614C778.411 523.112 787.012 514.158 795.276 505.719C806.261 494.502 817.616 482.564 829.306 469.906C840.996 457.248 851.343 443.938 860.279 429.873C869.214 415.809 876.605 400.543 882.45 384.008C888.295 367.508 891.252 349.43 891.252 329.739C891.251 310.082 887.959 289.362 881.442 267.579Z" fill="#E49B31"/>
<path d="M626.082 271.419C601.581 271.419 578.475 274.473 556.729 280.582C534.95 286.724 510.815 296.584 484.321 310.163L441.461 194.928C467.987 177.931 499.261 164.85 535.315 155.654C571.336 146.491 606.694 141.909 641.387 141.909C684.878 141.909 720.733 147.686 748.952 159.239C777.172 170.792 799.448 185.4 815.782 203.095C832.083 220.79 843.47 240.145 849.944 261.227C856.385 282.308 859.638 302.361 859.638 321.384C859.638 340.44 856.717 357.936 850.94 373.905C845.163 389.907 837.86 404.681 829.029 418.292C820.198 431.904 809.973 444.785 798.419 457.036C786.866 469.287 775.645 480.84 764.788 491.696C756.621 499.863 748.122 508.528 739.291 517.724C730.427 526.887 722.459 536.581 715.321 546.774C708.183 556.999 702.208 567.689 697.46 578.91C692.713 590.132 690.322 601.519 690.322 613.072C690.322 615.795 690.322 619.878 690.322 625.323C690.322 630.767 690.654 635.515 691.352 639.599H556.729C555.335 632.793 554.505 625.157 554.172 616.658C553.807 608.159 553.674 600.855 553.674 594.713C553.674 575.69 556.032 558.526 560.812 543.221C565.559 527.917 571.834 513.641 579.669 500.394C587.471 487.115 596.501 474.731 606.693 463.145C616.885 451.591 627.442 440.37 638.299 429.514C653.936 413.877 668.212 398.406 681.159 383.102C694.04 367.797 700.514 350.301 700.514 330.58C700.514 314.246 694.24 300.336 681.657 288.75C669.075 277.196 650.55 271.419 626.082 271.419Z" fill="#FBC343"/>
<path d="M730.288 790.77C730.288 815.33 722.338 834.28 706.436 847.649C690.535 861.046 672.565 867.716 652.498 867.716C632.404 867.716 614.433 861.046 598.532 847.649C582.659 834.281 574.708 815.33 574.708 790.77C574.708 766.238 582.659 747.287 598.533 733.891C623.009 713.235 659.221 708.632 687.878 723.13C713.307 735.994 730.288 762.119 730.288 790.77Z" fill="#E49B31"/>
<path d="M703.641 790.77C703.641 815.33 695.69 834.28 679.789 847.649C663.888 861.046 645.918 867.717 625.851 867.717C605.757 867.717 587.786 861.046 571.885 847.649C556.011 834.281 548.061 815.33 548.061 790.77C548.061 766.238 556.011 747.287 571.885 733.891C587.786 720.522 605.756 713.824 625.851 713.824C645.918 713.824 663.888 720.522 679.789 733.891C695.69 747.287 703.641 766.238 703.641 790.77Z" fill="#FBC343"/>
<path d="M300.363 442.579C301.856 434.615 296.61 426.95 288.646 425.457C280.683 423.965 273.017 429.211 271.525 437.174C270.032 445.138 275.278 452.804 283.242 454.296C291.205 455.788 298.871 450.542 300.363 442.579Z" fill="#D3DFFF"/>
<path d="M307.38 470.157C308.22 465.678 305.243 461.361 300.733 460.516C296.222 459.671 291.885 462.617 291.045 467.096C290.206 471.575 293.182 475.891 297.693 476.736C302.204 477.582 306.541 474.636 307.38 470.157Z" fill="#D3DFFF"/>
<path d="M290.582 406.873C313.14 384.316 313.14 347.743 290.582 325.186C268.025 302.629 231.453 302.629 208.896 325.186C186.339 347.743 186.339 384.316 208.896 406.873C231.453 429.43 268.025 429.43 290.582 406.873Z" fill="#D3DFFF"/>
<path d="M227.564 373.308C231.584 373.308 234.842 370.05 234.842 366.031C234.842 362.011 231.584 358.753 227.564 358.753C223.545 358.753 220.287 362.011 220.287 366.031C220.287 370.05 223.545 373.308 227.564 373.308Z" fill="white"/>
<path d="M249.744 373.308C253.763 373.308 257.021 370.05 257.021 366.031C257.021 362.011 253.763 358.753 249.744 358.753C245.725 358.753 242.467 362.011 242.467 366.031C242.467 370.05 245.725 373.308 249.744 373.308Z" fill="white"/>
<path d="M271.923 373.308C275.942 373.308 279.2 370.05 279.2 366.031C279.2 362.011 275.942 358.753 271.923 358.753C267.904 358.753 264.646 362.011 264.646 366.031C264.646 370.05 267.904 373.308 271.923 373.308Z" fill="white"/>
<path d="M208.365 838.801L213.762 859.607C215.17 865.033 220.416 868.699 226.22 868.305C243.916 867.102 280.683 862.767 301.785 847.213L295.786 817.228C266.772 815.588 239.638 817.202 216.143 825.112C210.26 827.092 206.858 832.989 208.365 838.801Z" fill="#102048"/>
<path d="M242.182 855.363C241.876 855.363 241.594 855.161 241.507 854.851L234.26 828.904C234.156 828.531 234.374 828.144 234.747 828.04C235.123 827.937 235.508 828.154 235.612 828.527L242.858 854.474C242.962 854.847 242.744 855.233 242.371 855.338C242.308 855.355 242.244 855.363 242.182 855.363Z" fill="white"/>
<path d="M257.843 851.857C257.536 851.857 257.255 851.654 257.168 851.344L249.921 825.398C249.818 825.024 250.035 824.638 250.408 824.534C250.784 824.429 251.168 824.648 251.273 825.021L258.519 850.967C258.624 851.34 258.405 851.727 258.032 851.831C257.969 851.848 257.906 851.857 257.843 851.857Z" fill="white"/>
<path d="M276.032 726.332L208.597 746.346L258.677 814.964L330.574 820.682L429.743 778.749L392.059 722.043L276.032 726.332Z" fill="#FBC343"/>
<path d="M359.168 735.862C507.259 692.023 531.059 822.906 299.997 846.732C291.836 837.549 282.298 821.613 278.511 808.293L400.532 751.906L359.168 735.862Z" fill="#FBC343"/>
<path d="M365.458 829.665C358.533 827.447 351.895 823.065 351.895 823.065L328.095 830.53L333.549 856.421L358.273 861.445C365.805 847.669 366.245 836.358 365.458 829.665Z" fill="#F9B384"/>
<path d="M279.039 809.202L277.982 807.383C303.438 792.589 368.642 757.047 424.196 746.566L424.586 748.634C369.353 759.055 304.401 794.463 279.039 809.202Z" fill="#E49B31"/>
<path d="M276.032 726.332C138.188 700.123 102.487 832.595 333.55 856.421C341.711 847.237 348.108 836.385 351.896 823.065C316.402 799.316 276.718 776.743 233.224 755.241L276.032 726.332Z" fill="#FBC343"/>
<path d="M351.33 823.952C344.773 819.779 337.941 815.367 330.707 810.696C294.395 787.251 253.238 760.678 218.271 745.526L219.107 743.595C254.234 758.817 295.468 785.44 331.848 808.929C339.078 813.598 345.908 818.008 352.459 822.177L351.33 823.952Z" fill="#E49B31"/>
<path d="M174.896 792.015L173.055 790.998C178.229 781.631 186.517 775.312 197.687 772.219L198.249 774.246C187.494 777.225 179.855 783.037 174.896 792.015Z" fill="#E49B31"/>
<path d="M462.598 784.04C457.639 775.063 450 769.251 439.245 766.271L439.807 764.244C450.978 767.338 459.265 773.656 464.439 783.023L462.598 784.04Z" fill="#E49B31"/>
<path d="M320.641 855.258L319.104 853.822C330.13 842.012 336.903 829.546 339.807 815.708L341.866 816.14C338.881 830.364 331.938 843.16 320.641 855.258Z" fill="#E49B31"/>
<path d="M434.206 821.953C416.545 811.042 382.308 829.895 373.713 830.849C371.208 831.126 368.309 830.578 365.459 829.665C366.246 836.358 365.806 847.669 358.274 861.445L362.474 862.299C362.474 862.299 391.507 872.941 422.306 866.746C450.734 861.028 448.09 830.53 434.206 821.953Z" fill="#102048"/>
<path d="M410.132 857.642C410.062 857.642 409.992 857.631 409.921 857.609C409.552 857.493 409.347 857.099 409.464 856.73C411.562 850.086 412.477 837.016 406.4 828.238C406.18 827.919 406.259 827.482 406.577 827.262C406.895 827.041 407.332 827.121 407.553 827.439C413.917 836.632 412.982 850.245 410.801 857.152C410.706 857.451 410.43 857.642 410.132 857.642Z" fill="white"/>
<path d="M396.283 860.272C396.213 860.272 396.142 860.261 396.071 860.24C395.702 860.123 395.497 859.729 395.614 859.36C397.712 852.716 398.628 839.646 392.55 830.868C392.33 830.55 392.41 830.113 392.728 829.893C393.045 829.672 393.482 829.751 393.703 830.069C400.067 839.262 399.132 852.875 396.951 859.782C396.857 860.081 396.581 860.272 396.283 860.272Z" fill="white"/>
<path d="M251.646 555.527C251.646 555.527 286.362 526.007 285.076 520.397C284.157 516.388 274.324 522.267 274.324 522.267C274.324 522.267 288.115 505.904 287.414 503.917C286.16 500.367 276.622 506.985 276.622 506.985C276.622 506.985 283.069 497.705 279.987 496.193C276.905 494.681 270.185 500.4 270.185 500.4C270.185 500.4 274.111 495.248 272.266 493.896C270.422 492.544 262.465 498.102 262.465 498.102C262.465 498.102 265.32 491.606 259.254 494.069C253.188 496.532 210.652 535.566 210.652 535.566L251.646 555.527Z" fill="#F9B384"/>
<path d="M265.849 520.513C265.681 520.513 265.511 520.453 265.376 520.33C259.417 514.885 256.79 513.563 250.216 511.541C249.846 511.428 249.638 511.035 249.752 510.665C249.866 510.295 250.258 510.086 250.629 510.201C257.441 512.296 260.161 513.664 266.323 519.294C266.61 519.556 266.629 519.999 266.368 520.285C266.229 520.436 266.04 520.513 265.849 520.513Z" fill="#E28B6D"/>
<path d="M255.39 536.526C255.358 536.526 255.325 536.523 255.293 536.519C254.909 536.465 254.642 536.11 254.695 535.727C255.378 530.846 256.914 527.795 259.393 526.402C261.512 525.209 264.269 525.332 267.589 526.765C267.945 526.918 268.108 527.331 267.955 527.687C267.802 528.043 267.389 528.207 267.033 528.053C264.138 526.802 261.799 526.658 260.08 527.624C258.038 528.772 256.693 531.564 256.084 535.921C256.035 536.271 255.735 536.526 255.39 536.526Z" fill="#E28B6D"/>
<path d="M253.753 507.014C253.567 507.014 253.381 506.94 253.243 506.793C252.977 506.511 252.99 506.068 253.272 505.802L261.983 497.592C262.265 497.325 262.709 497.339 262.975 497.621C263.24 497.903 263.227 498.347 262.945 498.612L254.234 506.823C254.099 506.951 253.926 507.014 253.753 507.014Z" fill="#E28B6D"/>
<path d="M261.818 509.819C261.643 509.819 261.468 509.755 261.332 509.623C261.052 509.355 261.043 508.911 261.312 508.632L269.679 499.914C269.947 499.633 270.391 499.624 270.671 499.894C270.95 500.162 270.959 500.606 270.691 500.885L262.324 509.603C262.186 509.747 262.002 509.819 261.818 509.819Z" fill="#E28B6D"/>
<path d="M270.057 514.728C269.885 514.728 269.714 514.665 269.579 514.539C269.295 514.275 269.28 513.831 269.544 513.548L276.109 506.505C276.373 506.223 276.816 506.207 277.1 506.471C277.383 506.735 277.399 507.179 277.135 507.462L270.57 514.504C270.431 514.652 270.245 514.728 270.057 514.728Z" fill="#E28B6D"/>
<path d="M382.784 752.976L255.856 757.885L241.831 642.177C241.831 642.177 284.323 601.874 300.671 587.032L328.27 585.616C413.897 624.538 399.876 673.149 382.784 752.976Z" fill="#3A6BEA"/>
<path d="M328.271 585.616C328.271 585.616 426.234 593.994 457.117 661.111C487.337 726.785 363.149 750.171 363.149 750.171L328.271 585.616Z" fill="#3A6BEA"/>
<path d="M216.292 599.999L256.774 550.736L218.918 527.794C203.127 538.774 172.59 563.644 146.712 591.806C141 598.022 136.538 605.283 134.291 613.278C132.373 620.1 132.025 626.838 133.102 633.437C135.911 650.635 149.439 663.906 167.498 666.021C182.92 667.827 241.831 663.216 289.516 649.191L303.541 595.059C296.335 590.969 242.771 590.259 216.292 599.999Z" fill="#3A6BEA"/>
<g opacity="0.8">
<path d="M410.024 612.252C410.235 612.203 410.446 612.155 410.657 612.106C410.214 611.844 409.77 611.59 409.326 611.332C402.147 612.985 394.74 614.674 387.438 615.555C383.05 616.083 368.389 617.052 364.104 607.283C361.972 602.423 363.585 597.019 365.997 593.225C365.644 593.123 365.296 593.024 364.946 592.925C362.477 596.943 360.892 602.581 363.141 607.705C367.715 618.139 382.993 617.15 387.564 616.598C395.077 615.693 402.675 613.945 410.024 612.252Z" fill="white"/>
<path d="M455.741 687.949C451.061 686.141 446.227 684.272 441.143 684.751C432.228 685.594 424.598 694.41 424.136 704.404C423.82 711.219 426.423 718.36 431.387 724.642C431.686 724.455 431.983 724.267 432.28 724.078C427.428 717.974 424.882 711.045 425.187 704.453C425.627 694.962 432.829 686.593 441.242 685.798C446.075 685.35 450.586 687.085 455.362 688.93C457.066 689.588 458.799 690.252 460.56 690.816C460.651 690.478 460.739 690.138 460.821 689.795C459.105 689.243 457.41 688.594 455.741 687.949Z" fill="white"/>
<path d="M208.479 654.496C202.363 649.438 192.86 648.086 182.411 650.787C173.099 653.196 165.109 657.967 159.62 664.281C159.981 664.397 160.333 664.529 160.699 664.635C166.039 658.646 173.731 654.118 182.673 651.806C192.791 649.187 201.955 650.466 207.809 655.307C210.592 657.607 212.559 660.595 213.989 663.819C214.351 663.778 214.713 663.736 215.077 663.694C213.58 660.225 211.493 656.988 208.479 654.496Z" fill="white"/>
<path d="M153.188 584.926C164.649 582.079 175.832 578.079 186.146 572.138C190.044 569.893 194.445 567.03 197.54 562.828C200.832 558.357 201.926 553.033 200.467 548.588C199.894 546.845 198.88 545.314 197.613 544.087C197.345 544.307 197.074 544.529 196.804 544.751C197.987 545.877 198.935 547.296 199.467 548.917C200.821 553.038 199.784 558.006 196.693 562.204C193.714 566.25 189.425 569.036 185.622 571.226C175.893 576.83 165.37 580.706 154.56 583.506C154.102 583.978 153.645 584.452 153.188 584.926Z" fill="white"/>
</g>
<path d="M337.235 559.892L337.217 561.687L336.933 589.586L336.897 592.609C336.844 597.339 334.906 601.624 331.776 604.735C328.665 607.829 324.38 609.768 319.632 609.803C310.066 609.856 302.242 602.174 302.153 592.591L301.815 558.113L337.235 559.892Z" fill="#F9B384"/>
<path d="M337.217 561.688L336.933 589.587C321.427 583.274 315.044 566.489 315.044 566.489L337.217 561.688Z" fill="#102048"/>
<path d="M343.351 513.003C348.908 519.671 365.133 557.456 348.686 570.348C330.177 584.854 302.01 561.012 302.01 561.012L298.231 517.004L322.681 510.558L343.351 513.003Z" fill="#F9B384"/>
<path d="M285.775 510.579C285.775 510.579 231.545 538.863 275.763 620.394C281.442 630.865 294.022 635.436 304.783 630.327C316.327 624.846 320.697 610.743 314.429 599.607C307.196 586.758 300.215 570.212 303.195 557.9L285.775 510.579Z" fill="#102048"/>
<path d="M301.263 534.339C306.992 528.61 306.992 519.322 301.263 513.593C295.535 507.864 286.246 507.864 280.517 513.593C274.789 519.322 274.789 528.61 280.518 534.339C286.246 540.068 295.535 540.068 301.263 534.339Z" fill="#FBC343"/>
<path d="M308.943 541.594C307.358 532.442 306.392 526.166 315.642 521.449C315.642 521.449 348.241 527.376 354.465 515.077C360.688 502.778 351.205 483.367 331.349 496.851C280.524 486.923 273.708 534.488 289.118 550.343L304.328 548.009C307.389 547.539 309.471 544.645 308.943 541.594Z" fill="#102048"/>
<path d="M334.184 543.787C335.381 543.787 336.351 542.816 336.351 541.62C336.351 540.423 335.381 539.452 334.184 539.452C332.987 539.452 332.017 540.423 332.017 541.62C332.017 542.816 332.987 543.787 334.184 543.787Z" fill="#102048"/>
<path d="M348.853 536.563C350.05 536.563 351.02 535.592 351.02 534.395C351.02 533.198 350.05 532.228 348.853 532.228C347.656 532.228 346.686 533.198 346.686 534.395C346.686 535.592 347.656 536.563 348.853 536.563Z" fill="#102048"/>
<path d="M347.353 548.289C347.201 548.289 347.049 548.233 346.931 548.12C346.685 547.887 346.675 547.499 346.909 547.253C347.778 546.338 348.73 545.052 348.33 544.119C347.914 543.151 346.158 542.733 345.353 542.733C343.624 542.733 342.794 539.657 342.645 539.04C342.566 538.711 342.768 538.379 343.097 538.3C343.426 538.218 343.758 538.422 343.838 538.752C344.154 540.052 344.869 541.506 345.353 541.506C346.181 541.506 348.711 541.897 349.458 543.635C349.991 544.877 349.432 546.379 347.799 548.098C347.677 548.225 347.515 548.289 347.353 548.289Z" fill="#102048"/>
<path d="M347.463 556.513C347.345 556.513 347.226 556.479 347.121 556.408C343.04 553.654 338.92 555.963 338.879 555.987C338.586 556.156 338.211 556.055 338.041 555.761C337.872 555.467 337.973 555.092 338.267 554.923C338.462 554.811 343.099 552.213 347.807 555.391C348.087 555.581 348.162 555.962 347.972 556.243C347.854 556.419 347.66 556.513 347.463 556.513Z" fill="#102048"/>
<path d="M333.234 532.234C334.467 534.554 332.319 535.02 329.801 536.357C327.284 537.694 324.707 538.184 324.119 537.077C323.531 535.97 325.094 533.989 327.612 532.652C330.129 531.314 332.28 530.437 333.234 532.234Z" fill="#102048"/>
<path d="M342.414 528.045C342.956 530.116 344.501 529.209 346.748 528.621C348.994 528.033 350.809 526.904 350.551 525.917C350.292 524.929 348.261 524.604 346.014 525.192C343.768 525.78 341.995 526.442 342.414 528.045Z" fill="#102048"/>
<path opacity="0.4" d="M328.536 556.427C331.13 554.035 331.294 549.992 328.901 547.397C326.508 544.803 322.465 544.639 319.87 547.032C317.276 549.425 317.113 553.468 319.506 556.063C321.898 558.657 325.941 558.82 328.536 556.427Z" fill="#EB5D60"/>
<path d="M307.7 557.728C310.62 553.944 309.501 548.187 305.201 544.869C300.901 541.551 295.048 541.928 292.128 545.713C289.208 549.497 290.327 555.254 294.627 558.572C298.927 561.89 304.78 561.512 307.7 557.728Z" fill="#F9B384"/>
<path d="M303.717 554.963C303.378 554.963 303.103 554.688 303.103 554.349C303.103 552.537 302.22 550.863 300.741 549.869C299.477 549.018 297.969 548.819 296.709 549.332C296.395 549.459 296.037 549.31 295.909 548.996C295.781 548.682 295.931 548.324 296.245 548.196C297.884 547.528 299.821 547.771 301.426 548.85C303.245 550.072 304.331 552.128 304.331 554.349C304.33 554.688 304.056 554.963 303.717 554.963Z" fill="#102048"/>
<path d="M215.768 599.503L193.626 623.456L194.656 624.408L216.798 600.455L215.768 599.503Z" fill="#102048"/>
<path d="M371.767 702.459L371.358 701.118C387.478 696.205 403.121 690.327 417.298 672.599L418.393 673.475C403.967 691.516 388.106 697.48 371.767 702.459Z" fill="#102048"/>
<path d="M381.569 648.147H244.449C239.518 648.147 235.521 652.472 235.521 657.806V755.705C235.521 761.04 239.518 765.365 244.449 765.365H381.57C386.501 765.365 390.499 761.04 390.499 755.705V657.806C390.498 652.472 386.5 648.147 381.569 648.147Z" fill="#D3DFFF"/>
<path d="M320.247 700.568C320.768 700.568 321.19 701.025 321.19 701.588V711.924C321.19 712.487 320.768 712.944 320.247 712.944H305.77C305.249 712.944 304.827 712.487 304.827 711.924V701.588C304.827 701.025 305.249 700.568 305.77 700.568H320.247ZM320.247 697.763H305.77C303.704 697.763 302.022 699.478 302.022 701.588V711.924C302.022 714.033 303.704 715.749 305.77 715.749H320.247C322.313 715.749 323.995 714.033 323.995 711.924V701.588C323.995 699.478 322.313 697.763 320.247 697.763Z" fill="#1F3C88"/>
<path d="M913.739 866.58H87V869.385H913.739V866.58Z" fill="#102048"/>
</svg>
